<svg width="286" height="143" viewBox="0 0 286 143" fill="none" xmlns="http://www.w3.org/2000/svg">
<path d="M130.014 0L143 12.8921L155.553 0H213.762L196.604 18.3203H188.461V59.5409L171.498 76.5042V18.3203L159.454 9.49941L163.017 18.3203L144.018 36.3013V27.3108L145.544 25.2752L143 22.3915L140.286 25.2752L141.982 27.3108V36.3013L122.983 18.3203L125.358 9.49941L114.841 18.3203V76.1074L97.1993 58.5231V18.3203H39.0154L52.9253 32.2301H89.7355V51.2289H51.2289L0 0H130.014Z" fill="white"/>
<path d="M222.218 0L203.898 18.4899L246.645 18.3203L232.813 32.2301H196.604V51.2289H234.771L286 0H222.218Z" fill="#FDCE00"/>
<path d="M140.286 46.6489L122.983 29.3464V84.9858H163.017V29.3464L145.714 46.6489V76.5041L143 79.2183L140.313 76.5041L140.286 46.6489Z" fill="#FDCE00"/>
<path d="M140.964 102.288L125.189 86.5125H161.49L145.714 102.288H140.964Z" fill="#FDCE00"/>
<path d="M143.339 104.663L141.643 102.967H145.036L143.339 104.663Z" fill="#FDCE00"/>
<path d="M97.1993 70.567L143.17 116.707L188.461 71.5848V97.5385L143 143L97.1993 97.1993V70.567Z" fill="#FDCE00"/>
</svg>
