<svg width="400" height="400" viewBox="0 0 400 400" fill="none" xmlns="http://www.w3.org/2000/svg">
<rect width="400" height="400" rx="60" fill="white"/>
<path d="M158.742 325C181.783 325 200.483 306.334 200.483 283.334V241.667H158.742C135.7 241.667 117 260.334 117 283.334C117 306.334 135.7 325 158.742 325Z" fill="#0ACF83"/>
<path d="M117 200C117 177 135.7 158.333 158.742 158.333H200.483V241.666H158.742C135.7 241.666 117 223 117 200Z" fill="#A259FF"/>
<path d="M117 116.667C117 93.6667 135.7 75 158.742 75H200.483V158.333H158.742C135.7 158.333 117 139.667 117 116.667Z" fill="#F24E1E"/>
<path d="M200.483 75H242.225C265.266 75 283.967 93.6667 283.967 116.667C283.967 139.667 265.266 158.333 242.225 158.333H200.483V75Z" fill="#FF7262"/>
<path d="M283.967 200C283.967 223 265.266 241.666 242.225 241.666C219.184 241.666 200.483 223 200.483 200C200.483 177 219.184 158.333 242.225 158.333C265.266 158.333 283.967 177 283.967 200Z" fill="#1ABCFE"/>
</svg>
