<svg width="122" height="61" viewBox="0 0 122 61" fill="none" xmlns="http://www.w3.org/2000/svg">
<path d="M55.4607 0L61 5.49941L66.3547 0H91.1851L83.866 7.81495H80.3927V25.3986L73.1566 32.6346V7.81495L68.019 4.0522L69.5386 7.81495L61.4342 15.4852V11.6501L62.0854 10.7817L61 9.5516L59.8422 10.7817L60.5659 11.6501V15.4852L52.4615 7.81495L53.4745 4.0522L48.9882 7.81495V32.4654L41.4626 24.9644V7.81495H16.6429L22.5765 13.7485H38.2788V21.8529H21.8529L0 0H55.4607Z" fill="#212121"/>
<path d="M94.7924 0L86.9775 7.88731L105.212 7.81495L99.312 13.7485H83.866V21.8529H100.147L122 0H94.7924Z" fill="#FDCE00"/>
<path d="M59.8422 19.8993L52.4614 12.5186V36.2528H69.5385V12.5186L62.1578 19.8993V32.6348L61 33.7926L59.8538 32.6348L59.8422 19.8993Z" fill="#FDCE00"/>
<path d="M60.1316 43.6333L53.4021 36.9038H68.8873L62.1577 43.6333H60.1316Z" fill="#FDCE00"/>
<path d="M61.1447 44.6465L60.4211 43.9229H61.8684L61.1447 44.6465Z" fill="#FDCE00"/>
<path d="M41.4626 30.1021L61.0724 49.7841L80.3927 30.5362V41.6074L61 61L41.4626 41.4627V30.1021Z" fill="#FDCE00"/>
</svg>
