<svg width="250" height="250" viewBox="0 0 250 250" fill="none" xmlns="http://www.w3.org/2000/svg">
<path d="M125 250C194.036 250 250 194.036 250 125C250 55.9644 194.036 0 125 0C55.9644 0 0 55.9644 0 125C0 194.036 55.9644 250 125 250Z" fill="#7D2AE7"/>
<path d="M125 250C194.036 250 250 194.036 250 125C250 55.9644 194.036 0 125 0C55.9644 0 0 55.9644 0 125C0 194.036 55.9644 250 125 250Z" fill="url(#paint0_radial_2090_262)"/>
<path d="M125 250C194.036 250 250 194.036 250 125C250 55.9644 194.036 0 125 0C55.9644 0 0 55.9644 0 125C0 194.036 55.9644 250 125 250Z" fill="url(#paint1_radial_2090_262)"/>
<path d="M125 250C194.036 250 250 194.036 250 125C250 55.9644 194.036 0 125 0C55.9644 0 0 55.9644 0 125C0 194.036 55.9644 250 125 250Z" fill="url(#paint2_radial_2090_262)"/>
<path d="M125 250C194.036 250 250 194.036 250 125C250 55.9644 194.036 0 125 0C55.9644 0 0 55.9644 0 125C0 194.036 55.9644 250 125 250Z" fill="url(#paint3_radial_2090_262)"/>
<path d="M224.701 131.853C224.366 131.853 224.067 132.078 223.918 132.525C221.891 138.296 219.154 141.741 216.903 141.741C215.609 141.741 215.087 140.299 215.087 138.034C215.087 132.388 218.483 120.398 220.174 114.926C220.374 114.361 220.487 113.77 220.511 113.172C220.511 111.58 219.639 110.796 217.488 110.796C215.336 110.796 212.662 111.717 210.249 115.97C209.403 112.214 206.866 110.572 203.321 110.572C199.229 110.572 195.274 113.209 192.014 117.475C188.757 121.742 184.938 123.159 182.053 122.463C184.129 117.401 184.888 113.607 184.888 110.796C184.888 106.381 182.712 103.719 179.192 103.719C173.83 103.719 170.746 108.831 170.746 114.204C170.746 118.358 172.625 122.637 176.779 124.714C173.308 132.562 168.234 139.665 166.307 139.665C163.818 139.665 163.084 127.5 163.234 118.794C163.308 113.806 163.732 113.545 163.732 112.028C163.732 111.169 163.159 110.572 160.908 110.572C155.647 110.572 154.005 115.038 153.768 120.162C153.678 122.105 153.374 124.032 152.861 125.908C150.647 133.769 146.12 139.727 143.159 139.727C141.779 139.727 141.418 138.346 141.418 136.556C141.418 130.908 144.578 123.831 144.578 117.811C144.578 113.371 142.637 110.572 138.967 110.572C134.664 110.572 128.955 115.709 123.557 125.311C125.336 117.96 126.057 110.834 120.809 110.834C119.666 110.851 118.545 111.141 117.537 111.679C116.816 112.052 116.43 112.724 116.48 113.47C116.978 121.319 110.162 141.381 103.694 141.381C102.513 141.381 101.953 140.112 101.953 138.048C101.953 132.4 105.323 120.436 107.015 114.951C107.221 114.354 107.334 113.729 107.351 113.097C107.351 111.605 106.43 110.834 104.328 110.834C102.015 110.834 99.515 111.717 97.0896 115.97C96.2438 112.214 93.7064 110.572 90.1742 110.572C84.3657 110.572 77.8607 116.717 75.0125 124.739C71.1941 135.436 63.495 145.759 53.1343 145.759C43.7313 145.759 38.7687 137.936 38.7687 125.585C38.7687 107.724 51.8782 93.147 61.5921 93.147C66.2438 93.147 68.4578 96.1072 68.4578 100.647C68.4578 106.145 65.398 108.694 65.398 110.784C65.398 111.418 65.9204 112.052 66.9776 112.052C71.2065 112.052 76.1692 107.09 76.1692 100.324C76.1692 93.5575 70.6841 88.5947 60.9578 88.5947C44.9005 88.5947 28.7313 104.764 28.7313 125.473C28.7313 141.953 36.8657 151.891 50.9204 151.891C60.51 151.891 68.893 144.441 73.4204 135.721C73.9304 142.948 77.2016 146.704 82.1891 146.704C86.6293 146.704 90.2239 144.067 92.9726 139.416C94.0299 144.279 96.8284 146.667 100.473 146.667C104.652 146.667 108.134 144.017 111.455 139.104C111.406 142.961 112.289 146.592 115.634 146.592C117.214 146.592 119.104 146.232 119.44 144.852C122.948 130.286 131.667 118.396 134.329 118.396C135.112 118.396 135.324 119.142 135.324 120.05C135.324 124.005 132.537 132.115 132.537 137.288C132.537 142.898 134.913 146.592 139.826 146.592C145.274 146.592 150.808 139.925 154.503 130.174C155.659 139.279 158.159 146.629 162.053 146.629C166.853 146.629 175.374 136.542 180.534 125.846C182.55 126.107 185.597 126.045 188.508 123.98C187.276 127.127 186.542 130.572 186.542 134.006C186.542 143.931 191.268 146.704 195.349 146.704C199.788 146.704 203.383 144.067 206.132 139.416C207.039 143.607 209.353 146.654 213.62 146.654C220.286 146.654 226.082 139.838 226.082 134.241C226.082 132.762 225.447 131.853 224.701 131.853ZM86.2687 141.219C83.5697 141.219 82.5125 138.495 82.5125 134.453C82.5125 127.438 87.3134 115.697 92.4005 115.697C94.6145 115.697 95.4603 118.321 95.4603 121.518C95.4603 128.645 90.8955 141.219 86.2687 141.219ZM178.533 120.249C176.928 118.334 176.343 115.722 176.343 113.408C176.343 110.547 177.388 108.135 178.645 108.135C179.9 108.135 180.274 109.366 180.274 111.082C180.274 113.943 179.254 118.147 178.533 120.249ZM199.416 141.219C196.729 141.219 195.671 138.098 195.671 134.453C195.671 127.674 200.472 115.697 205.597 115.697C207.811 115.697 208.607 118.284 208.607 121.518C208.607 128.645 204.117 141.219 199.416 141.219Z" fill="white"/>
<defs>
<radialGradient id="paint0_radial_2090_262" cx="0" cy="0" r="1" gradientUnits="userSpaceOnUse" gradientTransform="translate(48.2906 221.58) rotate(-49.416) scale(193.354)">
<stop stop-color="#6420FF"/>
<stop offset="1" stop-color="#6420FF" stop-opacity="0"/>
</radialGradient>
<radialGradient id="paint1_radial_2090_262" cx="0" cy="0" r="1" gradientUnits="userSpaceOnUse" gradientTransform="translate(66.1837 28.4205) rotate(54.703) scale(218.042)">
<stop stop-color="#00C4CC"/>
<stop offset="1" stop-color="#00C4CC" stop-opacity="0"/>
</radialGradient>
<radialGradient id="paint2_radial_2090_262" cx="0" cy="0" r="1" gradientUnits="userSpaceOnUse" gradientTransform="translate(48.2895 221.579) rotate(-45.1954) scale(191.013 87.8495)">
<stop stop-color="#6420FF"/>
<stop offset="1" stop-color="#6420FF" stop-opacity="0"/>
</radialGradient>
<radialGradient id="paint3_radial_2090_262" cx="0" cy="0" r="1" gradientUnits="userSpaceOnUse" gradientTransform="translate(102.237 33.6845) rotate(66.52) scale(196.824 329.724)">
<stop stop-color="#00C4CC"/>
<stop offset="1" stop-color="#00C4CC" stop-opacity="0"/>
</radialGradient>
</defs>
</svg>
