<svg width="167" height="250" viewBox="0 0 167 250" fill="none" xmlns="http://www.w3.org/2000/svg">
<path d="M41.7416 250C64.783 250 83.4833 231.334 83.4833 208.334V166.667H41.7416C18.7003 166.667 0 185.334 0 208.334C0 231.334 18.7003 250 41.7416 250Z" fill="#0ACF83"/>
<path d="M0 125C0 102 18.7003 83.333 41.7416 83.333H83.4833V166.666H41.7416C18.7003 166.666 0 148 0 125Z" fill="#A259FF"/>
<path d="M0 41.6667C0 18.6667 18.7003 0 41.7416 0H83.4833V83.3333H41.7416C18.7003 83.3333 0 64.6667 0 41.6667Z" fill="#F24E1E"/>
<path d="M83.4833 0H125.225C148.266 0 166.967 18.6667 166.967 41.6667C166.967 64.6667 148.266 83.3333 125.225 83.3333H83.4833V0Z" fill="#FF7262"/>
<path d="M166.967 125C166.967 148 148.266 166.666 125.225 166.666C102.184 166.666 83.4833 148 83.4833 125C83.4833 102 102.184 83.333 125.225 83.333C148.266 83.333 166.967 102 166.967 125Z" fill="#1ABCFE"/>
</svg>
